<svg width="12" height="12" viewBox="0 0 12 12" fill="none" xmlns="http://www.w3.org/2000/svg">
<g clip-path="url(#clip0_1241_2)">
<mask id="mask0_1241_2" style="mask-type:luminance" maskUnits="userSpaceOnUse" x="0" y="2" width="12" height="8">
<path d="M0 2.66699H12V9.33366H0V2.66699Z" fill="white"/>
</mask>
<g mask="url(#mask0_1241_2)">
<g opacity="0.84">
<path fill-rule="evenodd" clip-rule="evenodd" d="M10.5139 3.75879C10.6256 3.75879 10.7328 3.80317 10.8118 3.88218C10.8908 3.96118 10.9352 4.06834 10.9352 4.18007C10.9352 4.2918 10.8908 4.39895 10.8118 4.47796C10.7328 4.55696 10.6256 4.60134 10.5139 4.60134H8.10653C8.21826 4.60134 8.32542 4.64573 8.40444 4.72474C8.48345 4.80375 8.52783 4.91091 8.52783 5.02265C8.52783 5.13439 8.48345 5.24155 8.40444 5.32056C8.32542 5.39957 8.21826 5.44396 8.10653 5.44396H9.43058C9.54232 5.44396 9.64948 5.48834 9.72849 5.56735C9.8075 5.64636 9.85189 5.75352 9.85189 5.86526C9.85189 5.977 9.8075 6.08416 9.72849 6.16317C9.64948 6.24218 9.54232 6.28657 9.43058 6.28657H8.81825C8.52492 6.28657 8.28708 6.47518 8.28708 6.70784C8.28708 6.81651 8.34614 6.91796 8.4643 7.01229C8.57636 7.10162 8.73231 7.11323 8.85675 7.18429C8.93757 7.23027 9.00091 7.3017 9.03689 7.38744C9.07287 7.47319 9.07947 7.56843 9.05567 7.65831C9.03186 7.7482 8.97898 7.82769 8.90528 7.88438C8.83157 7.94107 8.74118 7.97179 8.64819 7.97173H3.65281C3.54108 7.97173 3.43392 7.92735 3.35492 7.84834C3.27591 7.76934 3.23153 7.66219 3.23153 7.55046C3.23153 7.43873 3.27591 7.33157 3.35492 7.25257C3.43392 7.17356 3.54108 7.12918 3.65281 7.12918H1.30558C1.19385 7.12918 1.08668 7.08479 1.00767 7.00578C0.928665 6.92677 0.884277 6.81961 0.884277 6.70787C0.884277 6.59614 0.928665 6.48897 1.00767 6.40996C1.08668 6.33095 1.19385 6.28657 1.30558 6.28657H3.71297C3.82471 6.28657 3.93187 6.24218 4.01088 6.16317C4.08989 6.08416 4.13428 5.977 4.13428 5.86526C4.13428 5.75352 4.08989 5.64636 4.01088 5.56735C3.93187 5.48834 3.82471 5.44396 3.71297 5.44396H2.20836C2.15304 5.44396 2.09826 5.43306 2.04714 5.41189C1.99603 5.39072 1.94959 5.35969 1.91047 5.32057C1.87135 5.28145 1.84032 5.23501 1.81915 5.18389C1.79798 5.13278 1.78708 5.078 1.78708 5.02268C1.78708 4.96735 1.79798 4.91257 1.81915 4.86146C1.84032 4.81035 1.87135 4.76391 1.91047 4.72479C1.94959 4.68567 1.99603 4.65464 2.04714 4.63347C2.09826 4.6123 2.15304 4.6014 2.20836 4.6014H4.61575C4.50401 4.6014 4.39685 4.55701 4.31784 4.478C4.23883 4.39899 4.19444 4.29183 4.19444 4.18009C4.19444 4.06836 4.23883 3.9612 4.31784 3.88219C4.39685 3.80318 4.50401 3.75879 4.61575 3.75879H10.5139ZM10.5139 5.44396C10.5692 5.44396 10.624 5.45485 10.6751 5.47602C10.7262 5.49719 10.7727 5.52823 10.8118 5.56735C10.8509 5.60646 10.882 5.65291 10.9031 5.70402C10.9243 5.75513 10.9352 5.80991 10.9352 5.86523C10.9352 5.92056 10.9243 5.97534 10.9031 6.02645C10.882 6.07756 10.8509 6.124 10.8118 6.16312C10.7727 6.20224 10.7262 6.23327 10.6751 6.25444C10.624 6.27561 10.5692 6.28651 10.5139 6.28651C10.4022 6.28651 10.295 6.24213 10.216 6.16312C10.137 6.08412 10.0926 5.97696 10.0926 5.86523C10.0926 5.7535 10.137 5.64635 10.216 5.56735C10.295 5.48834 10.4022 5.44396 10.5139 5.44396Z" fill="#4DB9AA" fill-opacity="0.1"/>
<path fill-rule="evenodd" clip-rule="evenodd" d="M7.36444 3.75879L7.92428 7.8419L7.97461 8.25157C7.98238 8.31494 7.96466 8.3788 7.92535 8.42911C7.88605 8.47942 7.82837 8.51206 7.765 8.51984L4.24055 8.95257C4.20918 8.95643 4.17734 8.95407 4.14687 8.94563C4.11641 8.93719 4.0879 8.92283 4.06298 8.90337C4.03806 8.88391 4.01722 8.85973 4.00165 8.83222C3.98608 8.8047 3.97608 8.77439 3.97222 8.74301L3.42961 4.32373C3.42767 4.30793 3.42888 4.29191 3.43317 4.27658C3.43747 4.26125 3.44476 4.24693 3.45463 4.23444C3.4645 4.22195 3.47675 4.21155 3.49067 4.20382C3.50459 4.1961 3.5199 4.19122 3.53572 4.18946L3.82805 4.15668L7.36444 3.75879Z" fill="white"/>
<path d="M4.0645 4.13012L4.34061 4.09918M7.36444 3.75879L7.92428 7.8419L7.97461 8.25157C7.98238 8.31494 7.96466 8.3788 7.92535 8.42911C7.88605 8.47942 7.82837 8.51206 7.765 8.51984L4.24055 8.95257C4.20918 8.95643 4.17734 8.95407 4.14687 8.94563C4.11641 8.93719 4.0879 8.92283 4.06298 8.90337C4.03806 8.88391 4.01722 8.85973 4.00165 8.83222C3.98608 8.8047 3.97608 8.77439 3.97222 8.74301L3.42961 4.32373C3.42767 4.30793 3.42888 4.29191 3.43317 4.27658C3.43747 4.26125 3.44476 4.24693 3.45463 4.23444C3.4645 4.22195 3.47675 4.21155 3.49067 4.20382C3.50459 4.1961 3.5199 4.19122 3.53572 4.18946L3.82805 4.15668L7.36444 3.75879Z" stroke="#4DB9AA" stroke-width="0.138889"/>
<path fill-rule="evenodd" clip-rule="evenodd" d="M7.21225 4.01562L7.71903 7.71607L7.76458 8.08729C7.77925 8.2069 7.69536 8.31562 7.5772 8.33012L4.42097 8.71768C4.30281 8.73218 4.19508 8.64701 4.18042 8.5274L3.68986 4.53251C3.68794 4.51682 3.68912 4.5009 3.69334 4.48567C3.69757 4.47043 3.70475 4.45618 3.71449 4.44372C3.72422 4.43126 3.73632 4.42084 3.75008 4.41305C3.76384 4.40527 3.779 4.40027 3.7947 4.39835L4.18514 4.3504" fill="#4DB9AA" fill-opacity="0.1"/>
<path fill-rule="evenodd" clip-rule="evenodd" d="M7.51861 2.99121H4.77677C4.75503 2.99118 4.73349 2.99545 4.7134 3.00378C4.69332 3.0121 4.67507 3.02431 4.65972 3.03971C4.64434 3.05507 4.63215 3.07332 4.62384 3.09341C4.61554 3.1135 4.61129 3.13503 4.61133 3.15677V7.73082C4.61133 7.77654 4.62983 7.81788 4.65977 7.84782C4.67513 7.86322 4.69337 7.87543 4.71346 7.88376C4.73355 7.89208 4.75508 7.89635 4.77683 7.89632H8.32777C8.34951 7.89634 8.37103 7.89207 8.39111 7.88375C8.41119 7.87542 8.42943 7.86321 8.44477 7.84782C8.46016 7.83248 8.47237 7.81424 8.4807 7.79416C8.48902 7.77408 8.49329 7.75256 8.49327 7.73082V3.96532C8.49327 3.92142 8.47582 3.87931 8.44477 3.84827L7.63561 3.03966C7.60457 3.00864 7.56248 2.99122 7.51861 2.99121Z" fill="white" stroke="#4DB9AA" stroke-width="0.138889"/>
<path d="M7.54487 3.06055V3.75855C7.54487 3.80643 7.56389 3.85236 7.59775 3.88622C7.63161 3.92008 7.67754 3.9391 7.72542 3.9391H8.20292M5.25781 7.00855H6.82265M5.25781 3.9391H6.82265M5.25781 4.66132H7.84581M5.25781 5.44371H7.84581M5.25781 6.22616H7.84581" stroke="#4DB9AA" stroke-width="0.138889" stroke-linecap="round" stroke-linejoin="round"/>
</g>
</g>
</g>
<defs>
<clipPath id="clip0_1241_2">
<rect width="12" height="12" fill="white"/>
</clipPath>
</defs>
</svg>
